<?xml version="1.0" encoding="UTF-8"?>
<svg version="1.1" xmlns="http://www.w3.org/2000/svg" width="361" height="348">
<path d="M0 0 C1.77207039 1.00112169 3.54552307 1.99980034 5.3203125 2.99609375 C6.18430664 3.48190918 7.04830078 3.96772461 7.93847656 4.46826172 C11.20297805 6.26929831 14.52355716 7.9306928 17.875 9.5625 C25.94646621 13.51670846 33.84785595 17.78274713 41.7600708 22.0440979 C50.05650314 26.51205881 58.38186717 30.91733926 66.75 35.25 C95.51776815 50.18801226 95.51776815 50.18801226 99.125 57.625 C99.73601562 58.84123047 99.73601562 58.84123047 100.359375 60.08203125 C102.89482491 66.89849083 102.57796313 74.2549583 102.69140625 81.43359375 C102.71218735 82.53349136 102.73296844 83.63338898 102.75437927 84.76661682 C102.8194742 88.2610177 102.87857269 91.75549021 102.9375 95.25 C102.98072335 97.62696037 103.02433883 100.00391364 103.06835938 102.38085938 C103.17511428 108.19133175 103.27695321 114.0018745 103.375 119.8125 C104.26340576 119.53245117 105.15181152 119.25240234 106.06713867 118.96386719 C107.81861206 118.41714355 107.81861206 118.41714355 109.60546875 117.859375 C110.76199951 117.49682617 111.91853027 117.13427734 113.11010742 116.76074219 C116.57387726 115.75473889 119.79437936 115.14558099 123.375 114.8125 C124.87743142 120.86425175 124.02170027 126.68929982 123.4375 132.8125 C122.63633621 141.854112 122.08257104 150.7309562 122.375 159.8125 C121.715 159.8125 121.055 159.8125 120.375 159.8125 C120.39820313 160.60527344 120.42140625 161.39804688 120.4453125 162.21484375 C120.57846714 170.82234016 120.18275995 179.35143671 119.5625 187.9375 C119.49240723 189.02796631 119.42231445 190.11843262 119.35009766 191.24194336 C119.26937012 192.27843018 119.18864258 193.31491699 119.10546875 194.3828125 C119.03739014 195.30852051 118.96931152 196.23422852 118.89916992 197.18798828 C118.28092038 200.28355538 117.24611515 202.27891271 115.375 204.8125 C112.375 205.8125 112.375 205.8125 109.89453125 204.59765625 C109.00121094 204.02917969 108.10789062 203.46070313 107.1875 202.875 C106.28644531 202.30910156 105.38539063 201.74320313 104.45703125 201.16015625 C103.76996094 200.71542969 103.08289063 200.27070313 102.375 199.8125 C102.2925 200.9675 102.21 202.1225 102.125 203.3125 C101.05424254 211.31500312 97.47455489 216.52320027 91.3203125 221.6484375 C84.65963542 226.54235673 77.499309 230.63814658 70.375 234.8125 C69.24723145 235.47556152 68.11946289 236.13862305 66.95751953 236.82177734 C61.92119911 239.78277897 56.88294366 242.7404204 51.83789062 245.68652344 C45.74003787 249.24768679 39.65594544 252.8262825 33.625 256.5 C24.00649554 262.30718616 14.14808284 267.69880921 4.33154297 273.16162109 C1.65416892 274.65661724 -1.01668436 276.16221729 -3.68359375 277.67578125 C-4.42359619 278.09537109 -5.16359863 278.51496094 -5.92602539 278.94726562 C-7.26618814 279.70829506 -8.60529552 280.47118736 -9.94311523 281.23632812 C-15.97052338 284.65249758 -20.74843396 285.96004326 -27.625 284.8125 C-32.35036063 282.95082837 -36.739854 280.59979492 -41.18457031 278.15185547 C-43.82616322 276.7020977 -46.48551964 275.28909015 -49.1484375 273.87890625 C-60.6687621 267.74605844 -71.99595209 261.32518528 -83.24047852 254.70166016 C-88.62444832 251.53702649 -94.02736288 248.45463916 -99.5625 245.5625 C-143.68836213 222.41369761 -143.68836213 222.41369761 -147.625 209.8125 C-147.88496557 207.56585021 -148.11132393 205.3151752 -148.3125 203.0625 C-149.30964848 194.72028459 -153.379149 190.1040643 -158.625 183.8125 C-163.75392717 176.81946583 -167.20794411 169.52072448 -170.31689453 161.47387695 C-171.89788045 157.29276728 -171.89788045 157.29276728 -174.625 153.8125 C-173.625 150.8125 -173.625 150.8125 -172.625 148.8125 C-173.285 148.4825 -173.945 148.1525 -174.625 147.8125 C-174.59244792 145.79427083 -174.55989583 143.77604167 -174.52734375 141.7578125 C-174.49850758 139.73064596 -174.49850758 139.73064596 -175.625 137.8125 C-175.47900391 135.81298828 -175.47900391 135.81298828 -175.1015625 133.3828125 C-174.9675 132.50496094 -174.8334375 131.62710938 -174.6953125 130.72265625 C-174.54835937 129.80355469 -174.40140625 128.88445312 -174.25 127.9375 C-174.11078125 127.02613281 -173.9715625 126.11476562 -173.828125 125.17578125 C-173.23204908 121.3350279 -172.58344397 117.57981093 -171.625 113.8125 C-171.27921232 111.81461562 -170.94356451 109.81490549 -170.625 107.8125 C-169.965 107.8125 -169.305 107.8125 -168.625 107.8125 C-168.22667969 106.49185547 -168.22667969 106.49185547 -167.8203125 105.14453125 C-164.8426096 96.84394113 -157.7737589 84.88687945 -149.625 80.8125 C-149.14698423 77.13253732 -148.83578286 73.47842742 -148.58984375 69.77734375 C-147.79243444 60.61465947 -143.28044531 54.03740247 -136.625 47.8125 C-128.59611792 42.28522597 -119.96039371 37.76265572 -111.27532959 33.36773682 C-108.11367697 31.76743302 -104.96083 30.1500056 -101.80859375 28.53125 C-101.18990417 28.21374786 -100.5712146 27.89624573 -99.93377686 27.56912231 C-93.81522667 24.41713266 -87.79634403 21.09895932 -81.81567383 17.69384766 C-79.10249052 16.15406845 -76.59391758 14.80213919 -73.625 13.8125 C-72.965 13.1525 -72.305 12.4925 -71.625 11.8125 C-69.96469924 11.13013382 -68.29654207 10.4668465 -66.625 9.8125 C-64.26955528 8.62554811 -61.9325455 7.42038215 -59.6015625 6.1875 C-58.23710376 5.47372012 -56.87251639 4.76018607 -55.5078125 4.046875 C-53.37807673 2.93050499 -51.24942919 1.81219861 -49.12304688 0.68945312 C-47.0563923 -0.40037677 -44.98558192 -1.48195229 -42.9140625 -2.5625 C-42.28778961 -2.89588379 -41.66151672 -3.22926758 -41.01626587 -3.57275391 C-26.06147319 -11.34077787 -13.92454255 -8.07179658 0 0 Z " fill="#F51820" transform="translate(189.625,27.1875)"/>
<path d="M0 0 C-0.0030162 0.77737015 -0.00603241 1.5547403 -0.00914001 2.35566711 C-0.03149791 9.72546873 -0.01997252 17.0941084 0.02846622 24.46375751 C0.05219838 28.25158619 0.06338126 32.03854033 0.04467773 35.82641602 C0.02706768 39.49042792 0.04399791 43.15287866 0.08367729 46.81670189 C0.092885 48.20591741 0.09018864 49.59527069 0.07469368 50.98443031 C-0.02565195 60.95943242 1.76295255 67.17236691 8 75 C8.75925781 75.97195312 9.51851562 76.94390625 10.30078125 77.9453125 C19.88506858 88.3298413 30.0489036 96.5510061 42 104 C42.90363281 104.5671875 43.80726562 105.134375 44.73828125 105.71875 C73.58841527 122.58912386 111.2870943 126.84931409 143.38671875 118.61328125 C166.69429464 112.11746026 194.9801568 101.02976479 209 80 C207.41058594 79.16855469 207.41058594 79.16855469 205.7890625 78.3203125 C204.40094005 77.58873445 203.01292477 76.85695302 201.625 76.125 C200.92632812 75.76019531 200.22765625 75.39539063 199.5078125 75.01953125 C194.2265625 72.2265625 194.2265625 72.2265625 192 70 C191.5625 67.125 191.5625 67.125 192 64 C195.50416877 60.65549748 199.08637417 58.92836342 203.57421875 57.1953125 C204.21904709 56.94492218 204.86387543 56.69453186 205.52824402 56.43655396 C214.2301677 53.08981342 223.02615327 49.9911998 231.8125 46.875 C235.21568605 45.66641581 238.61805153 44.45556573 242.01953125 43.2421875 C243.22394867 42.81335266 243.22394867 42.81335266 244.45269775 42.37585449 C248.61318786 40.88609864 252.73023945 39.33430639 256.81640625 37.6484375 C260.22517358 36.25169963 263.46661429 35.31282857 267.125 34.75 C268.05570312 34.60046875 268.98640625 34.4509375 269.9453125 34.296875 C270.96238281 34.14992188 270.96238281 34.14992188 272 34 C273.50243142 40.05175175 272.64670027 45.87679982 272.0625 52 C271.26133621 61.041612 270.70757104 69.9184562 271 79 C270.34 79 269.68 79 269 79 C269.02320313 79.79277344 269.04640625 80.58554688 269.0703125 81.40234375 C269.20346714 90.00984016 268.80775995 98.53893671 268.1875 107.125 C268.11740723 108.21546631 268.04731445 109.30593262 267.97509766 110.42944336 C267.89437012 111.46593018 267.81364258 112.50241699 267.73046875 113.5703125 C267.66239014 114.49602051 267.59431152 115.42172852 267.52416992 116.37548828 C266.90592038 119.47105538 265.87111515 121.46641271 264 124 C261 125 261 125 258.51953125 123.78515625 C257.62621094 123.21667969 256.73289062 122.64820313 255.8125 122.0625 C254.91144531 121.49660156 254.01039063 120.93070312 253.08203125 120.34765625 C252.39496094 119.90292969 251.70789063 119.45820313 251 119 C250.9175 120.155 250.835 121.31 250.75 122.5 C249.67924254 130.50250312 246.09955489 135.71070027 239.9453125 140.8359375 C233.28463542 145.72985673 226.124309 149.82564658 219 154 C217.87223145 154.66306152 216.74446289 155.32612305 215.58251953 156.00927734 C210.54619911 158.97027897 205.50794366 161.9279204 200.46289062 164.87402344 C194.36503787 168.43518679 188.28094544 172.0137825 182.25 175.6875 C172.63149554 181.49468616 162.77308284 186.88630921 152.95654297 192.34912109 C150.27916892 193.84411724 147.60831564 195.34971729 144.94140625 196.86328125 C144.20140381 197.28287109 143.46140137 197.70246094 142.69897461 198.13476562 C141.35881186 198.89579506 140.01970448 199.65868736 138.68188477 200.42382812 C132.65447662 203.83999758 127.87656604 205.14754326 121 204 C116.27463937 202.13832837 111.885146 199.78729492 107.44042969 197.33935547 C104.79883678 195.8895977 102.13948036 194.47659015 99.4765625 193.06640625 C87.9562379 186.93355844 76.62904791 180.51268528 65.38452148 173.88916016 C60.00055168 170.72452649 54.59763712 167.64213916 49.0625 164.75 C4.93663787 141.60119761 4.93663787 141.60119761 1 129 C0.74003443 126.75335021 0.51367607 124.5026752 0.3125 122.25 C-0.68464848 113.90778459 -4.754149 109.2915643 -10 103 C-15.12892717 96.00696583 -18.58294411 88.70822448 -21.69189453 80.66137695 C-23.27288045 76.48026728 -23.27288045 76.48026728 -26 73 C-25 70 -25 70 -24 68 C-24.66 67.67 -25.32 67.34 -26 67 C-25.96744792 64.98177083 -25.93489583 62.96354167 -25.90234375 60.9453125 C-25.87350758 58.91814596 -25.87350758 58.91814596 -27 57 C-26.85400391 55.00048828 -26.85400391 55.00048828 -26.4765625 52.5703125 C-26.3425 51.69246094 -26.2084375 50.81460938 -26.0703125 49.91015625 C-25.92335938 48.99105469 -25.77640625 48.07195312 -25.625 47.125 C-25.41617187 45.75794922 -25.41617187 45.75794922 -25.203125 44.36328125 C-24.60704908 40.5225279 -23.95844397 36.76731093 -23 33 C-22.65421232 31.00211562 -22.31856451 29.00240549 -22 27 C-21.34 27 -20.68 27 -20 27 C-19.73445313 26.11957031 -19.46890625 25.23914063 -19.1953125 24.33203125 C-16.95895129 18.09799166 -7.85399823 0 0 0 Z " fill="#038FE9" transform="translate(41,108)"/>
<path d="M0 0 C1.77207039 1.00112169 3.54552307 1.99980034 5.3203125 2.99609375 C6.18430664 3.48190918 7.04830078 3.96772461 7.93847656 4.46826172 C11.20297805 6.26929831 14.52355716 7.9306928 17.875 9.5625 C25.94646621 13.51670846 33.84785595 17.78274713 41.7600708 22.0440979 C50.05650314 26.51205881 58.38186717 30.91733926 66.75 35.25 C95.5170056 50.18761629 95.5170056 50.18761629 99.1875 57.75 C99.60644531 58.58402344 100.02539062 59.41804688 100.45703125 60.27734375 C101.43063014 62.96613388 101.55254731 64.97681583 101.375 67.8125 C100.715 67.1525 100.055 66.4925 99.375 65.8125 C98.5190625 66.33714844 97.663125 66.86179687 96.78125 67.40234375 C84.8867595 74.58650769 72.63216203 81.04917489 60.34936523 87.53439331 C59.66044189 87.89816071 58.97151855 88.2619281 58.26171875 88.63671875 C57.23655151 89.17789841 57.23655151 89.17789841 56.19067383 89.73001099 C49.56668112 93.23112997 42.98729879 96.81132379 36.41943359 100.41650391 C30.38587521 103.72559566 24.32576551 106.98176653 18.25439453 110.22094727 C13.88014421 112.56134804 9.51807264 114.92352733 5.16162109 117.296875 C3.46479675 118.21976667 1.76527723 119.13775409 0.06103516 120.046875 C-10.09674124 125.494621 -14.75867223 131.10465549 -18.5 141.9375 C-18.88770957 143.2254088 -19.26792748 144.51576294 -19.625 145.8125 C-19.955 144.8225 -20.285 143.8325 -20.625 142.8125 C-22.935 143.1425 -25.245 143.4725 -27.625 143.8125 C-27.91632813 142.95527344 -28.20765625 142.09804687 -28.5078125 141.21484375 C-28.91773438 140.07144531 -29.32765625 138.92804688 -29.75 137.75 C-30.14445312 136.62464844 -30.53890625 135.49929687 -30.9453125 134.33984375 C-35.27499389 125.24751283 -41.76722805 121.65238599 -50.5625 117.1875 C-52.3237346 116.26704715 -54.08495194 115.34655635 -55.84446716 114.42282104 C-57.03872934 113.79612407 -58.23385371 113.17106743 -59.42982483 112.54763794 C-65.00547174 109.63625411 -70.47768727 106.55919736 -75.9375 103.4375 C-84.62666504 98.48856296 -93.36310628 93.63095361 -102.125 88.8125 C-111.2924647 83.76738507 -120.44599536 78.69939057 -129.5625 73.5625 C-130.49707031 73.03785156 -131.43164062 72.51320313 -132.39453125 71.97265625 C-136.92931985 69.40922234 -141.340716 66.77691397 -145.625 63.8125 C-145.625 57.71113614 -143.46567773 54.52581689 -139.25317383 50.19213867 C-131.27634641 42.9696457 -120.80858121 38.1918656 -111.27532959 33.36773682 C-108.11367697 31.76743302 -104.96083 30.1500056 -101.80859375 28.53125 C-101.18990417 28.21374786 -100.5712146 27.89624573 -99.93377686 27.56912231 C-93.81522667 24.41713266 -87.79634403 21.09895932 -81.81567383 17.69384766 C-79.10249052 16.15406845 -76.59391758 14.80213919 -73.625 13.8125 C-72.965 13.1525 -72.305 12.4925 -71.625 11.8125 C-69.96469924 11.13013382 -68.29654207 10.4668465 -66.625 9.8125 C-64.26955528 8.62554811 -61.9325455 7.42038215 -59.6015625 6.1875 C-58.23710376 5.47372012 -56.87251639 4.76018607 -55.5078125 4.046875 C-53.37807673 2.93050499 -51.24942919 1.81219861 -49.12304688 0.68945312 C-47.0563923 -0.40037677 -44.98558192 -1.48195229 -42.9140625 -2.5625 C-42.28778961 -2.89588379 -41.66151672 -3.22926758 -41.01626587 -3.57275391 C-26.06147319 -11.34077787 -13.92454255 -8.07179658 0 0 Z " fill="#FD3834" transform="translate(189.625,27.1875)"/>
<path d="M0 0 C2.4191294 3.6286941 3.12631881 5.29551257 3.22119141 9.56982422 C3.24436432 10.51775848 3.26753723 11.46569275 3.29141235 12.44235229 C3.3112619 13.46942291 3.33111145 14.49649353 3.3515625 15.5546875 C3.38629166 17.13432785 3.38629166 17.13432785 3.42172241 18.74588013 C3.46940269 20.97685873 3.51463172 23.20789085 3.55761719 25.43896484 C3.62458913 28.85404839 3.70239701 32.2687663 3.78125 35.68359375 C3.82617745 37.84894481 3.87046927 40.01430917 3.9140625 42.1796875 C3.93796051 43.20270966 3.96185852 44.22573181 3.98648071 45.27975464 C4.0033493 46.23399323 4.0202179 47.18823181 4.03759766 48.17138672 C4.05456696 49.00918671 4.07153625 49.84698669 4.08901978 50.71017456 C3.99825812 53.04480583 3.89666669 54.83607816 3 57 C1.25212097 58.04806519 1.25212097 58.04806519 -1.05395508 58.82763672 C-1.91608109 59.12830048 -2.77820709 59.42896423 -3.66645813 59.73873901 C-4.60797226 60.04925201 -5.54948639 60.35976501 -6.51953125 60.6796875 C-7.48847824 61.01493439 -8.45742523 61.35018127 -9.45573425 61.69558716 C-12.56961584 62.77080642 -15.69028684 63.82424363 -18.8125 64.875 C-38.1463966 70.08644101 -38.1463966 70.08644101 -55 80 C-55.04080783 81.99958364 -55.04254356 84.00045254 -55 86 C-54.02417969 86.54269531 -53.04835938 87.08539063 -52.04296875 87.64453125 C-50.75766633 88.3669275 -49.47251813 89.08959818 -48.1875 89.8125 C-47.54490234 90.16892578 -46.90230469 90.52535156 -46.24023438 90.89257812 C-43.13461565 92.6465286 -40.32540905 94.25964807 -38 97 C-38.66 97 -39.32 97 -40 97 C-40.23332031 97.56460938 -40.46664062 98.12921875 -40.70703125 98.7109375 C-51.68383454 118.14419046 -82.04471976 129.01219143 -102 135 C-107.56584949 136.49807254 -113.21482556 138 -119 138 C-119.11662329 130.38441993 -119.20508063 122.76893417 -119.25906086 115.15266037 C-119.28498892 111.61479564 -119.32007094 108.07754848 -119.37719727 104.54003906 C-119.44267827 100.45892933 -119.46631863 96.37845282 -119.48828125 92.296875 C-119.51408768 91.04638367 -119.5398941 89.79589233 -119.56648254 88.50750732 C-119.56950179 78.91114997 -117.51776783 70.3349516 -111.66796875 62.53125 C-108.4546475 59.48259382 -105.22154973 57.53365543 -101.3125 55.5 C-100.54067383 55.08476074 -99.76884766 54.66952148 -98.97363281 54.24169922 C-97.25892837 53.32074024 -95.54114552 52.40549663 -93.82080078 51.49511719 C-90.80902882 49.89877899 -87.8080307 48.28345291 -84.80859375 46.6640625 C-80.37522715 44.27073178 -75.93882625 41.88318907 -71.5 39.5 C-64.85829813 35.92969548 -58.24241153 32.31336685 -51.63012695 28.68896484 C-46.24604071 25.74635781 -40.84093305 22.84664921 -35.41796875 19.9765625 C-34.75868378 19.62711578 -34.0993988 19.27766907 -33.4201355 18.91763306 C-30.17969754 17.20027936 -26.93720001 15.48708989 -23.69042969 13.78173828 C-15.58183634 9.50096688 -7.75073645 4.90202289 0 0 Z " fill="#E20C15" transform="translate(289,92)"/>
<path d="M0 0 C1.051875 0.78375 2.10375 1.5675 3.1875 2.375 C3.93 2.92671875 4.6725 3.4784375 5.4375 4.046875 C7.21266496 5.39989707 8.9613599 6.78809154 10.6875 8.203125 C38.39626222 30.57217783 76.40134961 45.98747293 112.29296875 46.203125 C113.07269043 46.21013931 113.85241211 46.21715363 114.65576172 46.22438049 C117.16640021 46.24183281 119.67680302 46.24823513 122.1875 46.25 C123.04381012 46.25067474 123.90012024 46.25134949 124.78237915 46.25204468 C137.41626701 46.23619956 149.64128536 45.85626083 162 43 C163.18964355 42.73461426 163.18964355 42.73461426 164.40332031 42.46386719 C191.47475833 36.2904278 215.45657792 23.62940676 236.29296875 5.34765625 C242.34991874 0.09480352 242.34991874 0.09480352 246 -0.4375 C249.62512706 0.09116436 250.73025981 1.20647362 253 4 C252.34 4 251.68 4 251 4 C250.9175 5.155 250.835 6.31 250.75 7.5 C249.67924254 15.50250312 246.09955489 20.71070027 239.9453125 25.8359375 C233.28463542 30.72985673 226.124309 34.82564658 219 39 C217.87223145 39.66306152 216.74446289 40.32612305 215.58251953 41.00927734 C210.54619911 43.97027897 205.50794366 46.9279204 200.46289062 49.87402344 C194.36503787 53.43518679 188.28094544 57.0137825 182.25 60.6875 C172.63149554 66.49468616 162.77308284 71.88630921 152.95654297 77.34912109 C150.27916892 78.84411724 147.60831564 80.34971729 144.94140625 81.86328125 C144.20140381 82.28287109 143.46140137 82.70246094 142.69897461 83.13476562 C141.35881186 83.89579506 140.01970448 84.65868736 138.68188477 85.42382812 C132.65447662 88.83999758 127.87656604 90.14754326 121 89 C116.27463937 87.13832837 111.885146 84.78729492 107.44042969 82.33935547 C104.79883678 80.8895977 102.13948036 79.47659015 99.4765625 78.06640625 C87.9562379 71.93355844 76.62904791 65.51268528 65.38452148 58.88916016 C60.00055168 55.72452649 54.59763712 52.64213916 49.0625 49.75 C6.89813478 27.63021556 6.89813478 27.63021556 1.74609375 16.53515625 C0.1701679 11.18030874 0.15587224 5.54905163 0 0 Z " fill="#E70916" transform="translate(41,223)"/>
<path d="M0 0 C2.375 2 2.375 2 4 4 C3.34 4 2.68 4 2 4 C1.9175 5.155 1.835 6.31 1.75 7.5 C0.67924254 15.50250312 -2.90044511 20.71070027 -9.0546875 25.8359375 C-15.71536458 30.72985673 -22.875691 34.82564658 -30 39 C-31.12776855 39.66306152 -32.25553711 40.32612305 -33.41748047 41.00927734 C-38.45380089 43.97027897 -43.49205634 46.9279204 -48.53710938 49.87402344 C-54.63496213 53.43518679 -60.71905456 57.0137825 -66.75 60.6875 C-76.36850446 66.49468616 -86.22691716 71.88630921 -96.04345703 77.34912109 C-98.72083108 78.84411724 -101.39168436 80.34971729 -104.05859375 81.86328125 C-104.79859619 82.28287109 -105.53859863 82.70246094 -106.30102539 83.13476562 C-107.64118814 83.89579506 -108.98029552 84.65868736 -110.31811523 85.42382812 C-114.81496507 87.97251915 -118.02468631 89.12954953 -123.1875 89.0625 C-124.53908203 89.04896484 -124.53908203 89.04896484 -125.91796875 89.03515625 C-126.60503906 89.02355469 -127.29210937 89.01195312 -128 89 C-128.33 88.34 -128.66 87.68 -129 87 C-126.03 87 -123.06 87 -120 87 C-120 74.46 -120 61.92 -120 49 C-124.29 48.67 -128.58 48.34 -133 48 C-133 47.67 -133 47.34 -133 47 C-132.31711914 46.98541748 -131.63423828 46.97083496 -130.93066406 46.95581055 C-86.27441708 45.89737521 -46.81337553 35.27240099 -12.70703125 5.34765625 C-5.59921659 -0.81655242 -5.59921659 -0.81655242 0 0 Z " fill="#B60210" transform="translate(290,223)"/>
<path d="M0 0 C0.45632812 0.71027344 0.91265625 1.42054687 1.3828125 2.15234375 C5.00257019 6.09085622 9.16452133 8.11246396 13.875 10.5625 C15.87381733 11.62738005 17.8725119 12.69249055 19.87109375 13.7578125 C20.89187012 14.29696289 21.91264648 14.83611328 22.96435547 15.39160156 C27.6421862 17.8700919 32.29068577 20.40146058 36.9375 22.9375 C37.84387207 23.43080811 38.75024414 23.92411621 39.68408203 24.43237305 C46.24487818 28.01283225 52.75362751 31.67920159 59.25 35.375 C69.771861 41.35679759 80.39560996 47.13374034 91.0859375 52.80859375 C94.5882586 54.67476579 98.03121078 56.58558531 101.4140625 58.66015625 C109.12216857 63.33849789 116.63683366 66.29036283 125.73046875 64.64453125 C133.41213042 62.46299222 140.27957976 57.7831365 147.07080078 53.7109375 C151.94627121 50.86318814 156.97455732 48.32048505 162 45.75 C169.1159227 42.06769183 176.11717491 38.27427614 183.04296875 34.24609375 C189.61648913 30.47079704 196.33466508 26.95065326 203.015625 23.37060547 C210.97066325 19.10454377 218.8914325 14.78151092 226.77001953 10.37573242 C230.44616638 8.33460914 234.02977345 6.4264287 238 5 C238 4.01 238 3.02 238 2 C238.66 2 239.32 2 240 2 C241.28138403 4.6381436 242.02172352 6.50954421 241.89086914 9.46386719 C240.64614496 13.00735713 238.96802756 13.64096106 235.68359375 15.390625 C234.542854 16.00905273 233.40211426 16.62748047 232.22680664 17.26464844 C230.96388133 17.92676983 229.70077384 18.58854383 228.4375 19.25 C227.13258281 19.94935691 225.8284782 20.65023187 224.52514648 21.35253906 C221.06549315 23.21109098 217.59489331 25.04816781 214.12097168 26.87988281 C210.65105253 28.71239954 207.18927882 30.56017065 203.7265625 32.40625 C198.97851456 34.93527715 194.22715838 37.4579164 189.47206116 39.97366333 C179.78864313 45.09792237 170.16035112 50.31877835 160.56005859 55.59716797 C157.8636645 57.07470759 155.16091011 58.54011316 152.45703125 60.00390625 C150.6588148 60.98169844 148.86063629 61.95956041 147.0625 62.9375 C146.25135742 63.37433105 145.44021484 63.81116211 144.60449219 64.26123047 C134.31940411 69.70264355 134.31940411 69.70264355 127.6875 78.9375 C127.21699219 79.93652344 126.74648437 80.93554688 126.26171875 81.96484375 C125.0245714 84.9408917 123.97484451 87.92901095 123 91 C122.67 90.01 122.34 89.02 122 88 C118.535 88.495 118.535 88.495 115 89 C114.70867187 88.14277344 114.41734375 87.28554687 114.1171875 86.40234375 C113.70726562 85.25894531 113.29734375 84.11554688 112.875 82.9375 C112.28332031 81.24947266 112.28332031 81.24947266 111.6796875 79.52734375 C107.35000611 70.43501283 100.85777195 66.83988599 92.0625 62.375 C90.3012654 61.45454715 88.54004806 60.53405635 86.78053284 59.61032104 C85.58627066 58.98362407 84.39114629 58.35856743 83.19517517 57.73513794 C77.61952826 54.82375411 72.14731273 51.74669736 66.6875 48.625 C57.99833496 43.67606296 49.26189372 38.81845361 40.5 34 C31.3325353 28.95488507 22.17900464 23.88689057 13.0625 18.75 C12.12792969 18.22535156 11.19335938 17.70070313 10.23046875 17.16015625 C5.69568015 14.59672234 1.284284 11.96441397 -3 9 C-2.25 2.25 -2.25 2.25 0 0 Z " fill="#FD7372" transform="translate(47,82)"/>
<path d="M0 0 C2.31 0.33 4.62 0.66 7 1 C7.33 1.99 7.66 2.98 8 4 C6.84765625 5.76171875 6.84765625 5.76171875 5.0625 7.6875 C4.40894531 8.39261719 3.75539062 9.09773437 3.08203125 9.82421875 C2.39496094 10.54222656 1.70789063 11.26023438 1 12 C0.38511719 12.66644531 -0.22976562 13.33289063 -0.86328125 14.01953125 C-6.04325368 19.45689362 -11.79034801 23.79883714 -18 28 C-18.76828125 28.52464844 -19.5365625 29.04929688 -20.328125 29.58984375 C-35.117316 39.07202913 -52.02089971 43.32148758 -69 47 C-69.8962207 47.19867676 -70.79244141 47.39735352 -71.71582031 47.60205078 C-78.83953735 49.05489716 -85.74275799 49.30997721 -93 49.25 C-94.76960083 49.24093628 -94.76960083 49.24093628 -96.57495117 49.23168945 C-119.50862088 48.97456806 -141.30235467 45.23576991 -162.4375 36.0625 C-163.19514648 35.73870361 -163.95279297 35.41490723 -164.73339844 35.08129883 C-169.50167275 32.9495437 -173.13690583 30.52025222 -177 27 C-175.68 26.34 -174.36 25.68 -173 25 C-173 23.68 -173 22.36 -173 21 C-175.92321965 18.71760829 -175.92321965 18.71760829 -179 17 C-178.67 16.34 -178.34 15.68 -178 15 C-177.03320312 15.66386719 -176.06640625 16.32773438 -175.0703125 17.01171875 C-173.75542436 17.90396427 -172.44030773 18.79587313 -171.125 19.6875 C-170.49335938 20.12255859 -169.86171875 20.55761719 -169.2109375 21.00585938 C-160.36171065 26.9790875 -151.12658485 30.89121953 -141 34.1875 C-139.98421875 34.52974609 -138.9684375 34.87199219 -137.921875 35.22460938 C-103.94945612 46.43986304 -66.96914875 42.08446531 -34.87841797 27.00292969 C-23.77021171 21.40838744 -5.72359522 11.44719044 0 0 Z " fill="#65D6FC" transform="translate(249,189)"/>
<path d="M0 0 C0.45632812 0.71027344 0.91265625 1.42054687 1.3828125 2.15234375 C5.00257019 6.09085622 9.16452133 8.11246396 13.875 10.5625 C15.87381733 11.62738005 17.8725119 12.69249055 19.87109375 13.7578125 C20.89187012 14.29696289 21.91264648 14.83611328 22.96435547 15.39160156 C27.6421862 17.8700919 32.29068577 20.40146058 36.9375 22.9375 C37.84387207 23.43080811 38.75024414 23.92411621 39.68408203 24.43237305 C46.24487818 28.01283225 52.75362751 31.67920159 59.25 35.375 C69.76978565 41.35561774 80.39447025 47.12688538 91.07421875 52.81640625 C94.58775848 54.69055309 98.07322723 56.59486501 101.51953125 58.58984375 C109.23705601 63.01532443 116.05863654 65.39687262 125 66 C125.33 66.99 125.66 67.98 126 69 C122.37 69 118.74 69 115 69 C114.67 68.01 114.34 67.02 114 66 C111.69 66 109.38 66 107 66 C107.66 67.98 108.32 69.96 109 72 C105.39384061 70.25451253 101.92089567 68.28756111 98.4375 66.3125 C90.85208874 62.02866562 83.24152122 57.79072693 75.625 53.5625 C75.03687531 53.23594421 74.44875061 52.90938843 73.84280396 52.57293701 C68.27617878 49.48213638 62.70862878 46.39300386 57.140625 43.3046875 C47.50773935 37.95994076 37.89164536 32.58568733 28.28393555 27.19580078 C23.37832373 24.4451528 18.46936214 21.7015648 13.54296875 18.98828125 C12.71667969 18.53259766 11.89039063 18.07691406 11.0390625 17.60742188 C9.52097343 16.77146419 8.00153463 15.93795077 6.48046875 15.10742188 C3.13997302 13.26693721 -0.03185365 11.40351183 -3 9 C-2.25 2.25 -2.25 2.25 0 0 Z " fill="#FDC4C9" transform="translate(47,82)"/>
<path d="M0 0 C2.31 0.33 4.62 0.66 7 1 C7.495 2.485 7.495 2.485 8 4 C6.84765625 5.76171875 6.84765625 5.76171875 5.0625 7.6875 C4.40894531 8.39261719 3.75539063 9.09773437 3.08203125 9.82421875 C2.39496094 10.54222656 1.70789063 11.26023438 1 12 C0.38511719 12.66644531 -0.22976562 13.33289063 -0.86328125 14.01953125 C-6.04325368 19.45689362 -11.79034801 23.79883714 -18 28 C-18.76828125 28.52464844 -19.5365625 29.04929688 -20.328125 29.58984375 C-25.49347973 32.90164432 -30.91819423 35.38499533 -36.5625 37.75 C-37.25875488 38.04398682 -37.95500977 38.33797363 -38.67236328 38.64086914 C-47.37564019 42.16770725 -55.06677611 43.34739233 -64.4375 42.75 C-65.33404297 42.71003906 -66.23058594 42.67007813 -67.15429688 42.62890625 C-73.73824696 42.26175304 -73.73824696 42.26175304 -76 40 C-75.02804688 39.8040625 -74.05609375 39.608125 -73.0546875 39.40625 C-45.3144987 33.51295542 -21.32714638 22.15668813 -1 2 C-0.67 1.34 -0.34 0.68 0 0 Z " fill="#3FC2F8" transform="translate(249,189)"/>
<path d="M0 0 C0 20.46 0 40.92 0 62 C-3.82827322 58.17172678 -4.91144103 56.38556285 -6.6875 51.5 C-7.10386719 50.3759375 -7.52023438 49.251875 -7.94921875 48.09375 C-9.7638165 42.75114249 -10.09377902 38.62674113 -10 33 C-10.66 33 -11.32 33 -12 33 C-12.33 29.37 -12.66 25.74 -13 22 C-13.99 24.31 -14.98 26.62 -16 29 C-17.625 27.375 -17.625 27.375 -19 25 C-17.52510036 18.80012247 -7.96869531 0 0 0 Z " fill="#024CAB" transform="translate(41,108)"/>
<path d="M0 0 C0.83789062 0.03609375 1.67578125 0.0721875 2.5390625 0.109375 C3.44785156 0.17898437 3.44785156 0.17898437 4.375 0.25 C4.16259766 2.10107422 4.16259766 2.10107422 3.375 4.25 C1.41162109 5.52783203 1.41162109 5.52783203 -1.2265625 6.6328125 C-2.72558105 7.26558105 -2.72558105 7.26558105 -4.25488281 7.91113281 C-10.4796586 10.38408779 -16.72222409 12.79064246 -23 15.125 C-23.6986618 15.38634735 -24.39732361 15.6476947 -25.11715698 15.91696167 C-34.73599309 19.51354131 -44.38585776 22.97350179 -54.16748047 26.10693359 C-57.69210561 27.23950219 -61.11417241 28.41936712 -64.5 29.921875 C-67.53532975 31.21189014 -69.38027636 31.54497488 -72.625 31.25 C-72.625 31.91 -72.625 32.57 -72.625 33.25 C-73.285 33.25 -73.945 33.25 -74.625 33.25 C-74.9375 31 -74.9375 31 -74.625 28.25 C-71.1070712 24.91902608 -67.54070303 23.17916557 -63.05078125 21.4453125 C-62.40595291 21.19492218 -61.76112457 20.94453186 -61.09675598 20.68655396 C-52.3948323 17.33981342 -43.59884673 14.2411998 -34.8125 11.125 C-31.40931386 9.91641578 -28.00703519 8.70532249 -24.60546875 7.4921875 C-23.80288635 7.20702271 -23.00030396 6.92185791 -22.17340088 6.62805176 C-17.99230544 5.13343469 -13.87124855 3.5588844 -9.77734375 1.8359375 C-6.41255861 0.45722127 -3.68734566 -0.21070547 0 0 Z " fill="#39C5F8" transform="translate(307.625,143.75)"/>
<path d="M0 0 C0.03652171 3.11430564 0.0369053 5.12479363 -1 8 C-3.58384144 10.36292941 -6.57942336 11.79867232 -9.6875 13.375 C-17.03614094 17.47101071 -21.97564292 20.83030814 -25 29 C-25.32871094 29.86625 -25.65742188 30.7325 -25.99609375 31.625 C-26.73872776 33.73738118 -27.40577636 35.84202994 -28 38 C-28.495 36.515 -28.495 36.515 -29 35 C-32.465 35.495 -32.465 35.495 -36 36 C-36.32613281 35.13117188 -36.65226563 34.26234375 -36.98828125 33.3671875 C-37.42527344 32.21476562 -37.86226562 31.06234375 -38.3125 29.875 C-38.74175781 28.73804688 -39.17101562 27.60109375 -39.61328125 26.4296875 C-40.93790312 22.99120489 -40.93790312 22.99120489 -42.66796875 19.8203125 C-44 17 -44 17 -44 13 C-40.98968256 12.06576355 -40.13349732 11.95550089 -37 13 C-36.67 13.66 -36.34 14.32 -36 15 C-33.03 15 -30.06 15 -27 15 C-27 14.67 -27 14.34 -27 14 C-29.97 13.505 -29.97 13.505 -33 13 C-33 12.67 -33 12.34 -33 12 C-32.09882446 11.98851929 -32.09882446 11.98851929 -31.17944336 11.97680664 C-23.80801312 11.60008105 -18.81470607 9.20575964 -12.5625 5.4375 C-10.8169352 4.41002312 -9.06836517 3.38762961 -7.31640625 2.37109375 C-6.55787354 1.91661865 -5.79934082 1.46214355 -5.01782227 0.99389648 C-3 0 -3 0 0 0 Z " fill="#FD989C" transform="translate(198,135)"/>
<path d="M0 0 C0.66 0.66 1.32 1.32 2 2 C5.08347826 2.16681109 5.08347826 2.16681109 8 2 C9.03444628 5.10333883 9.12083424 7.22876249 9.11352539 10.48120117 C9.11344986 11.60213669 9.11337433 12.7230722 9.11329651 13.87797546 C9.10813522 15.08742325 9.10297394 16.29687103 9.09765625 17.54296875 C9.0962413 18.78170242 9.09482635 20.0204361 9.09336853 21.29670715 C9.08871602 24.58631537 9.0797339 27.8758746 9.06866455 31.16546631 C9.05842629 34.52371623 9.05386574 37.88197333 9.04882812 41.24023438 C9.03779145 47.82684212 9.02104767 54.41341705 9 61 C6.03 61 3.06 61 0 61 C0 40.87 0 20.74 0 0 Z " fill="#F62F3A" transform="translate(161,168)"/>
<path d="M0 0 C0.67804688 0.43570313 1.35609375 0.87140625 2.0546875 1.3203125 C3.45074219 2.21363281 3.45074219 2.21363281 4.875 3.125 C6.23238281 3.99511719 6.23238281 3.99511719 7.6171875 4.8828125 C8.73351562 5.58148438 9.84984375 6.28015625 11 7 C11.71913574 7.46736572 12.43827148 7.93473145 13.17919922 8.41625977 C19.63006858 12.48547904 26.18342206 15.19506437 33.375 17.6875 C34.42171875 18.06455078 35.4684375 18.44160156 36.546875 18.83007812 C43.60688584 21.32723011 50.70554035 23.31232952 58 25 C58 25.66 58 26.32 58 27 C42.505886 28.78235026 30.87362887 28.34496588 16.95874023 21.00317383 C15.06448805 20.03302772 13.15739764 19.20548976 11.1875 18.40234375 C7.37199788 16.72370985 5.06615572 14.76701857 2 12 C3.32 11.34 4.64 10.68 6 10 C6 8.68 6 7.36 6 6 C4.03852126 4.61061923 2.03833424 3.2739589 0 2 C0 1.34 0 0.68 0 0 Z " fill="#33BEF9" transform="translate(70,204)"/>
<path d="M0 0 C0.44859375 0.70640625 0.8971875 1.4128125 1.359375 2.140625 C5.07669065 6.16588396 9.42394791 8.24264175 14.25 10.75 C16.22705449 11.8011585 18.20361282 12.8532507 20.1796875 13.90625 C21.15905273 14.42445312 22.13841797 14.94265625 23.14746094 15.4765625 C27.25876203 17.67225908 31.32024105 19.95199112 35.375 22.25 C36.05208008 22.6325293 36.72916016 23.01505859 37.42675781 23.40917969 C38.9519613 24.2713915 40.47612087 25.13544966 42 26 C39 27 39 27 36.73828125 26.00390625 C35.93777344 25.52824219 35.13726562 25.05257812 34.3125 24.5625 C33.50425781 24.08941406 32.69601563 23.61632812 31.86328125 23.12890625 C31.24839844 22.75636719 30.63351563 22.38382813 30 22 C29.505 23.485 29.505 23.485 29 25 C32.96 27.31 36.92 29.62 41 32 C40.01 32.495 40.01 32.495 39 33 C36.83959961 32.07885742 36.83959961 32.07885742 34.15234375 30.60546875 C33.16177979 30.06656006 32.17121582 29.52765137 31.15063477 28.97241211 C29.56013306 28.08888062 29.56013306 28.08888062 27.9375 27.1875 C26.86234131 26.59525635 25.78718262 26.0030127 24.67944336 25.39282227 C21.44731828 23.60516056 18.2232644 21.80357714 15 20 C14.08250977 19.49275391 13.16501953 18.98550781 12.21972656 18.46289062 C9.82511273 17.13610803 7.44185127 15.79141751 5.0625 14.4375 C4.35407959 14.04522217 3.64565918 13.65294434 2.91577148 13.2487793 C-1.80899512 10.50676435 -1.80899512 10.50676435 -2.74047852 8.03540039 C-3.09727428 5.23708776 -2.2166353 3.50086145 -1 1 C-0.67 0.67 -0.34 0.34 0 0 Z " fill="#FCD0D5" transform="translate(47,82)"/>
<path d="M0 0 C2.05078125 0.03255208 4.1015625 0.06510417 6.15234375 0.09765625 C6.15234375 2.09765625 6.15234375 2.09765625 5.12890625 3.56640625 C2.2351241 5.80822958 -1.00024793 6.62553746 -4.47265625 7.59765625 C-5.2217627 7.81196289 -5.97086914 8.02626953 -6.74267578 8.24707031 C-14.68815051 10.44613094 -22.69765516 11.90132582 -30.84765625 13.09765625 C-31.75128906 13.24203125 -32.65492188 13.38640625 -33.5859375 13.53515625 C-38.20030255 14.12391096 -42.76897689 14.12266541 -47.41015625 13.9296875 C-48.41409424 13.88811523 -49.41803223 13.84654297 -50.45239258 13.80371094 C-54.91909732 13.59571043 -59.38371945 13.35815594 -63.84765625 13.09765625 C-64.17765625 12.43765625 -64.50765625 11.77765625 -64.84765625 11.09765625 C-63.71561768 11.00790527 -62.5835791 10.9181543 -61.41723633 10.82568359 C-41.12337247 9.18477157 -19.04202724 1.00644964 0 0 Z " fill="#0382E3" transform="translate(221.84765625,255.90234375)"/>
<path d="M0 0 C7.70973305 1.27039885 13.56307227 4.14058347 20.3125 8 C22.24592347 9.08363721 24.17951069 10.16698231 26.11328125 11.25 C27.37845581 11.96929687 27.37845581 11.96929687 28.66918945 12.703125 C33.15268547 15.19776529 36.60749222 16.40504891 41.75 17.125 C42.92046875 17.29257813 44.0909375 17.46015625 45.296875 17.6328125 C46.18890625 17.75398438 47.0809375 17.87515625 48 18 C48.495 19.485 48.495 19.485 49 21 C45.37 21 41.74 21 38 21 C37.505 19.515 37.505 19.515 37 18 C34.69 18 32.38 18 30 18 C30.66 19.98 31.32 21.96 32 24 C27.97588548 22.00903465 24.04993647 19.86601978 20.125 17.6875 C19.43019531 17.30916016 18.73539063 16.93082031 18.01953125 16.54101562 C13.56935058 14.06450265 9.85109015 11.32796519 6 8 C4.329375 6.9790625 4.329375 6.9790625 2.625 5.9375 C1.325625 4.9784375 1.325625 4.9784375 0 4 C0 2.68 0 1.36 0 0 Z " fill="#FDBBBE" transform="translate(124,130)"/>
<path d="M0 0 C0 0.66 0 1.32 0 2 C-0.99 2 -1.98 2 -3 2 C-3 2.66 -3 3.32 -3 4 C2.55493924 5.02703748 2.55493924 5.02703748 8 4 C5.50716251 6.90831041 2.89076566 8.11349581 -0.625 9.5625 C-1.60726562 9.97628906 -2.58953125 10.39007813 -3.6015625 10.81640625 C-11.39413579 13.53037143 -18.2111117 14.27443988 -26.4375 13.75 C-27.33404297 13.71003906 -28.23058594 13.67007813 -29.15429688 13.62890625 C-35.73824696 13.26175304 -35.73824696 13.26175304 -38 11 C-36.99324219 10.79246094 -35.98648438 10.58492187 -34.94921875 10.37109375 C-24.13027507 8.03537758 -13.98880418 4.64657846 -3.70141602 0.57910156 C-2 0 -2 0 0 0 Z " fill="#4CC6F7" transform="translate(211,218)"/>
<path d="M0 0 C0.37125 1.134375 0.7425 2.26875 1.125 3.4375 C1.86637873 5.3814131 1.86637873 5.3814131 3 7 C6.08369887 8.05749557 6.08369887 8.05749557 9 8 C9.33 8.99 9.66 9.98 10 11 C16.79160165 15.7235707 22.80007753 18 31 18 C31.66 18 32.32 18 33 18 C33.495 18.99 33.495 18.99 34 20 C35.90965547 20.84024973 35.90965547 20.84024973 38.1875 21.5 C39.40179688 21.88478516 39.40179688 21.88478516 40.640625 22.27734375 C41.80851562 22.63505859 41.80851562 22.63505859 43 23 C48.78947368 24.78947368 48.78947368 24.78947368 51 27 C50.34 27 49.68 27 49 27 C49 27.99 49 28.98 49 30 C49.99 29.67 50.98 29.34 52 29 C52.33 28.34 52.66 27.68 53 27 C54.32 27.33 55.64 27.66 57 28 C57 28.99 57 29.98 57 31 C57.66 31.66 58.32 32.32 59 33 C53.34218092 32.45124832 48.39481208 31.38176349 43.0625 29.4375 C42.33087646 29.17283936 41.59925293 28.90817871 40.84545898 28.63549805 C29.02610336 24.25332438 17.96478676 18.78139142 7.1875 12.25 C6.42832275 11.79020752 5.66914551 11.33041504 4.88696289 10.85668945 C1.2011822 8.56460371 -2.20037771 6.3801214 -5 3 C-5 2.34 -5 1.68 -5 1 C-2 0 -2 0 0 0 Z " fill="#069BF2" transform="translate(60,231)"/>
<path d="M0 0 C0 19.47 0 38.94 0 59 C-0.33 59 -0.66 59 -1 59 C-1 43.16 -1 27.32 -1 11 C-1.99 11 -2.98 11 -4 11 C-4.33 10.01 -4.66 9.02 -5 8 C-7.37507863 13.72621697 -8.60612852 18.84492942 -9.1875 25 C-9.26935547 25.77472656 -9.35121094 26.54945313 -9.43554688 27.34765625 C-9.63316092 29.23080183 -9.81795374 31.11528577 -10 33 C-10.66 33 -11.32 33 -12 33 C-12.33 29.37 -12.66 25.74 -13 22 C-13.99 24.31 -14.98 26.62 -16 29 C-17.625 27.375 -17.625 27.375 -19 25 C-17.52510036 18.80012247 -7.96869531 0 0 0 Z " fill="#0676CE" transform="translate(41,108)"/>
<path d="M0 0 C3.75 0.1875 3.75 0.1875 7 1 C7.33 1.99 7.66 2.98 8 4 C6.03840374 6.96820486 3.43504677 9.41423467 1 12 C0.44699219 12.69738281 -0.10601562 13.39476562 -0.67578125 14.11328125 C-2.36712866 16.12755895 -3.75321685 17.6235123 -6 19 C-9.49087301 19.27640344 -12.60592034 18.81266696 -16 18 C-15.69618708 14.88415125 -14.98479235 13.98594863 -12.63671875 11.81640625 C-11.66347656 11.07261719 -10.69023437 10.32882813 -9.6875 9.5625 C-6.65540856 7.23479295 -4.1941307 5.25598081 -1.87890625 2.203125 C-1.25886719 1.47609375 -0.63882813 0.7490625 0 0 Z " fill="#31BCF5" transform="translate(249,189)"/>
<path d="M0 0 C0.33 0 0.66 0 1 0 C1.05789006 3.45826342 1.09355821 6.91640293 1.125 10.375 C1.14175781 11.35984375 1.15851562 12.3446875 1.17578125 13.359375 C1.18222656 14.30039063 1.18867188 15.24140625 1.1953125 16.2109375 C1.20578613 17.08024902 1.21625977 17.94956055 1.22705078 18.84521484 C1 21 1 21 -1 23 C-3.03449391 26.05174086 -3.25655627 26.5848534 -3.1875 30 C-3.17332031 30.78761719 -3.15914062 31.57523438 -3.14453125 32.38671875 C-2.93820846 36.11725789 -2.50453314 39.81509484 -2.0234375 43.51953125 C-1.99746639 46.26814035 -2.58281783 47.67949942 -4 50 C-5.5625 48.1875 -5.5625 48.1875 -7 46 C-6 43 -6 43 -5 41 C-5.66 40.67 -6.32 40.34 -7 40 C-6.96744792 37.98177083 -6.93489583 35.96354167 -6.90234375 33.9453125 C-6.87350758 31.91814596 -6.87350758 31.91814596 -8 30 C-7.85400391 28.00048828 -7.85400391 28.00048828 -7.4765625 25.5703125 C-7.27546875 24.25353516 -7.27546875 24.25353516 -7.0703125 22.91015625 C-6.92335938 21.99105469 -6.77640625 21.07195312 -6.625 20.125 C-6.48578125 19.21363281 -6.3465625 18.30226562 -6.203125 17.36328125 C-4.56058794 6.77976415 -4.56058794 6.77976415 -2 2 C-1.34 2 -0.68 2 0 2 C0 1.34 0 0.68 0 0 Z " fill="#21B5F8" transform="translate(22,135)"/>
<path d="M0 0 C-0.37207031 1.91821289 -0.37207031 1.91821289 -1 4 C-3.046875 5.30859375 -3.046875 5.30859375 -5.75 6.4375 C-6.73355469 6.85257813 -7.71710938 7.26765625 -8.73046875 7.6953125 C-9.80941406 8.12585938 -10.88835937 8.55640625 -12 9 C-13.17175781 9.47179687 -14.34351563 9.94359375 -15.55078125 10.4296875 C-24.6177613 14 -24.6177613 14 -27 14 C-27 12.68 -27 11.36 -27 10 C-28.65 9.67 -30.3 9.34 -32 9 C-28.17776706 6.45184471 -24.21764894 4.99861856 -19.9375 3.375 C-19.12861328 3.05015625 -18.31972656 2.7253125 -17.48632812 2.390625 C-11.51232372 0.13198632 -6.36324766 -0.41075021 0 0 Z " fill="#44C1F4" transform="translate(312,144)"/>
<path d="M0 0 C0.33 0 0.66 0 1 0 C1.33 22.11 1.66 44.22 2 67 C2.99 66.505 2.99 66.505 4 66 C4 69.66666667 4 73.33333333 4 77 C4.3121764 79.64632287 4.3121764 79.64632287 5 82 C5.66 82.33 6.32 82.66 7 83 C8.03789581 84.64333504 9.03567924 86.31243867 10 88 C10.66 88.99 11.32 89.98 12 91 C11.01 91 10.02 91 9 91 C-0.09365047 81.12591989 -1.25929284 71.72244619 -0.87890625 58.7890625 C-0.86207362 57.08274735 -0.84928451 55.37638804 -0.84031677 53.67001343 C-0.80631579 49.22687939 -0.71824133 44.78648803 -0.61798096 40.34442139 C-0.52511362 35.79249153 -0.48464022 31.24010862 -0.43945312 26.6875 C-0.34357441 17.79047618 -0.19043005 8.89546807 0 0 Z " fill="#C41934" transform="translate(41,95)"/>
<path d="M0 0 C0.66 0.33 1.32 0.66 2 1 C-3.16680602 4.2868809 -8.38876633 7.41651049 -13.75 10.375 C-14.4929834 10.78637207 -15.2359668 11.19774414 -16.00146484 11.62158203 C-23.51236802 15.76195803 -31.06700037 19.82146907 -38.625 23.875 C-39.2293689 24.19942078 -39.83373779 24.52384155 -40.4564209 24.85809326 C-44.29742482 26.91848638 -48.14652789 28.96303877 -52 31 C-52.83885742 31.45149414 -53.67771484 31.90298828 -54.54199219 32.36816406 C-56.3299977 33.30765188 -58.16064173 34.16551679 -60 35 C-60.66 34.67 -61.32 34.34 -62 34 C-50.51234845 27.34459633 -38.9416421 20.87324542 -27 15.0625 C-21.56551231 12.38207518 -16.40636122 9.33216074 -11.25 6.15844727 C-7.58694304 3.91016677 -3.94827818 1.72089676 0 0 Z " fill="#FB1818" transform="translate(236,111)"/>
<path d="M0 0 C0.66 0 1.32 0 2 0 C3.36176922 1.64351457 4.68962066 3.31522656 6 5 C9.96015495 9.26252347 9.96015495 9.26252347 15 12 C15.66 12 16.32 12 17 12 C17 12.99 17 13.98 17 15 C17.99 15 18.98 15 20 15 C20 15.99 20 16.98 20 18 C20.7425 18.0825 21.485 18.165 22.25 18.25 C25 19 25 19 27 21.0625 C28.86835961 23.27820383 28.86835961 23.27820383 31.75 23.25 C32.86375 23.12625 32.86375 23.12625 34 23 C34 23.99 34 24.98 34 26 C34.66 26 35.32 26 36 26 C36 26.66 36 27.32 36 28 C37.65 28.33 39.3 28.66 41 29 C41.495 30.485 41.495 30.485 42 32 C27.44490977 29.61035832 9.08132659 12.93122645 0 2 C0 1.34 0 0.68 0 0 Z " fill="#E60813" transform="translate(52,186)"/>
<path d="M0 0 C0.53625 0.721875 1.0725 1.44375 1.625 2.1875 C6.08298827 7.46669663 10.99052077 10.75488122 17 14 C16.01 14.495 16.01 14.495 15 15 C15 15.66 15 16.32 15 17 C10.92408457 15.7677465 7.6285039 14.19619973 4 12 C2.67139075 11.64830932 1.33841672 11.31229724 0 11 C-0.99 10.34 -1.98 9.68 -3 9 C-2.25 2.25 -2.25 2.25 0 0 Z " fill="#FDBCC4" transform="translate(47,82)"/>
<path d="M0 0 C0.33 0 0.66 0 1 0 C1.08160748 1.89510699 1.13946459 3.79124504 1.1875 5.6875 C1.23970703 7.27111328 1.23970703 7.27111328 1.29296875 8.88671875 C0.9614422 12.40974086 0.1527715 14.21494596 -2 17 C-5 18 -5 18 -7.04296875 17.07421875 C-7.75066406 16.61660156 -8.45835937 16.15898437 -9.1875 15.6875 C-9.90292969 15.23761719 -10.61835938 14.78773438 -11.35546875 14.32421875 C-12.16951172 13.66873047 -12.16951172 13.66873047 -13 13 C-13 12.34 -13 11.68 -13 11 C-15.97 10.01 -18.94 9.02 -22 8 C-21.67 6.68 -21.34 5.36 -21 4 C-18.8125 3.6875 -18.8125 3.6875 -16 4 C-13.375 6.3125 -13.375 6.3125 -11 9 C-8.58873442 11.71267378 -6.43319959 12.79374068 -3 14 C-2.67 12.02 -2.34 10.04 -2 8 C-1.34 8 -0.68 8 0 8 C0 5.36 0 2.72 0 0 Z " fill="#155DB3" transform="translate(307,215)"/>
<path d="M0 0 C1.75129657 1.10210905 3.50098464 2.20677432 5.25 3.3125 C6.22453125 3.92738281 7.1990625 4.54226562 8.203125 5.17578125 C12.21861445 7.79482255 15.26321533 10.03166222 18 14 C17.01 14 16.02 14 15 14 C15 14.66 15 15.32 15 16 C9.80310881 17.23316062 9.80310881 17.23316062 7 17 C4.70740172 15.23017948 3.612557 13.46922791 2 11 C3.32 10.67 4.64 10.34 6 10 C6 8.68 6 7.36 6 6 C4.03852126 4.61061923 2.03833424 3.2739589 0 2 C0 1.34 0 0.68 0 0 Z " fill="#1FABF9" transform="translate(70,204)"/>
<path d="M0 0 C0.37125 1.134375 0.7425 2.26875 1.125 3.4375 C1.86637873 5.3814131 1.86637873 5.3814131 3 7 C6.08369887 8.05749557 6.08369887 8.05749557 9 8 C9.33 8.99 9.66 9.98 10 11 C15.61598112 14.85095848 21.77726611 17.54315572 28.3203125 19.359375 C30 20 30 20 31 22 C27.33396089 23.22201304 26.09972702 22.35912435 22.7565918 20.69995117 C22.0737915 20.34521729 21.39099121 19.9904834 20.6875 19.625 C19.98343018 19.26575439 19.27936035 18.90650879 18.55395508 18.53637695 C-0.34483403 8.70053657 -0.34483403 8.70053657 -5 3 C-5 2.34 -5 1.68 -5 1 C-2 0 -2 0 0 0 Z " fill="#0FA5F2" transform="translate(60,231)"/>
<path d="M0 0 C2.77124036 0.64412614 5.54199445 1.29022748 8.3125 1.9375 C9.49102539 2.21110352 9.49102539 2.21110352 10.69335938 2.49023438 C11.8293457 2.75610352 11.8293457 2.75610352 12.98828125 3.02734375 C13.68477783 3.18968506 14.38127441 3.35202637 15.09887695 3.51928711 C16.7534406 3.93765565 18.38094108 4.46031369 20 5 C20 5.66 20 6.32 20 7 C12.08 7.33 4.16 7.66 -4 8 C-4 7.34 -4 6.68 -4 6 C-3.01 5.67 -2.02 5.34 -1 5 C-0.67 3.35 -0.34 1.7 0 0 Z " fill="#3FCBF9" transform="translate(108,224)"/>
<path d="M0 0 C0.66 0 1.32 0 2 0 C3.83691257 3.78187881 4.15837626 5.94568308 3 10 C-4.26153846 12.33846154 -4.26153846 12.33846154 -8 10.625 C-8.66 10.08875 -9.32 9.5525 -10 9 C-6.80009492 6.25722422 -3.99500618 4.3697164 0 3 C0 2.01 0 1.02 0 0 Z " fill="#FD5D58" transform="translate(285,84)"/>
<path d="M0 0 C-0.33 0.99 -0.66 1.98 -1 3 C-5.5658811 4.95380495 -10.38320222 5.72016961 -15.25 6.5625 C-20.26768678 7.30814411 -20.26768678 7.30814411 -25 9 C-27.3400417 8.71758117 -29.67504723 8.38749213 -32 8 C-29.03180159 6.02120106 -27.04716629 5.35080128 -23.6328125 4.4921875 C-22.58222656 4.22792969 -21.53164062 3.96367187 -20.44921875 3.69140625 C-18.80373047 3.28728516 -18.80373047 3.28728516 -17.125 2.875 C-16.03574219 2.59785156 -14.94648438 2.32070313 -13.82421875 2.03515625 C-12.77105469 1.77347656 -11.71789062 1.51179688 -10.6328125 1.2421875 C-9.67262207 1.0035498 -8.71243164 0.76491211 -7.72314453 0.51904297 C-5.07438708 0.0141785 -2.68844856 -0.09717284 0 0 Z " fill="#0279DC" transform="translate(214,260)"/>
<path d="M0 0 C0.33 0 0.66 0 1 0 C1.21354229 5.87241294 0.88691666 11.38584055 -1 17 C-1.66 17.66 -2.32 18.32 -3 19 C-3 17.35 -3 15.7 -3 14 C-4.64444521 17.28889042 -4.3990411 20.93324687 -4.62109375 24.56640625 C-4.74613281 25.36949219 -4.87117188 26.17257813 -5 27 C-5.66 27.33 -6.32 27.66 -7 28 C-6.68939057 23.66468535 -6.3527273 19.33208741 -6 15 C-5.93941406 14.1853125 -5.87882812 13.370625 -5.81640625 12.53125 C-5.4220372 8.34610911 -4.60899532 5.33951401 -2 2 C-1.34 2 -0.68 2 0 2 C0 1.34 0 0.68 0 0 Z " fill="#219DE6" transform="translate(22,135)"/>
<path d="M0 0 C0 18.81 0 37.62 0 57 C-0.33 57 -0.66 57 -1 57 C-1 41.16 -1 25.32 -1 9 C-1.99 9 -2.98 9 -4 9 C-4.75 6.75 -4.75 6.75 -5 4 C-1.75675676 0 -1.75675676 0 0 0 Z " fill="#025EC7" transform="translate(41,110)"/>
<path d="M0 0 C0.66 0.66 1.32 1.32 2 2 C1.96247317 5.09804847 1.80297466 8.08338416 1.5390625 11.1640625 C1.46964447 12.07127045 1.40022644 12.97847839 1.32870483 13.91317749 C1.10411751 16.81800065 0.86472993 19.7213911 0.625 22.625 C0.47037986 24.59106945 0.31672158 26.5572148 0.1640625 28.5234375 C-0.2127922 33.34991067 -0.60292676 38.17514984 -1 43 C-1.33 43 -1.66 43 -2 43 C-2.10499593 33.34037487 -2.02840917 23.71309669 -1.5625 14.0625 C-1.52326416 13.20495117 -1.48402832 12.34740234 -1.44360352 11.46386719 C-1.40162842 10.66239258 -1.35965332 9.86091797 -1.31640625 9.03515625 C-1.27974854 8.3275415 -1.24309082 7.61992676 -1.20532227 6.89086914 C-1 5 -1 5 0 2 C-1.98 2 -3.96 2 -6 2 C-6 1.67 -6 1.34 -6 1 C-3.125 0.375 -3.125 0.375 0 0 Z " fill="#207CCB" transform="translate(312,142)"/>
<path d="M0 0 C0.66 0.66 1.32 1.32 2 2 C5.08347826 2.16681109 5.08347826 2.16681109 8 2 C9.00496852 5.01490557 9.10335303 7.04181692 9.0625 10.1875 C9.05347656 11.08855469 9.04445312 11.98960937 9.03515625 12.91796875 C9.02355469 13.60503906 9.01195312 14.29210937 9 15 C8.67 15 8.34 15 8 15 C7.67 12.69 7.34 10.38 7 8 C5.68 8 4.36 8 3 8 C2.67 10.31 2.34 12.62 2 15 C1.67 15 1.34 15 1 15 C0.67 10.05 0.34 5.1 0 0 Z " fill="#FC5057" transform="translate(161,168)"/>
<path d="M0 0 C2.97 1.98 2.97 1.98 6 4 C5.84402344 4.77085937 5.68804687 5.54171875 5.52734375 6.3359375 C5.33269531 7.33882812 5.13804688 8.34171875 4.9375 9.375 C4.74027344 10.37273437 4.54304688 11.37046875 4.33984375 12.3984375 C3.75617048 14.97842539 3.75617048 14.97842539 5 17 C4.34 17.66 3.68 18.32 3 19 C1.05543072 14.86581409 0.62971979 11.230003 0.375 6.6875 C0.30023438 5.43324219 0.22546875 4.17898437 0.1484375 2.88671875 C0.09945312 1.93410156 0.05046875 0.98148438 0 0 Z " fill="#D81C2A" transform="translate(41,223)"/>
<path d="M0 0 C4.31392226 0.4793247 6.16569547 1.7457985 9 5 C8.01 5.33 7.02 5.66 6 6 C6 6.99 6 7.98 6 9 C3.52221994 9.88492145 2.33943414 10.11637742 -0.1875 9.25 C-2 8 -2 8 -3 5 C-0.525 5.495 -0.525 5.495 2 6 C2 5.34 2 4.68 2 4 C2.66 3.67 3.32 3.34 4 3 C2.68 2.01 1.36 1.02 0 0 Z " fill="#23B6F9" transform="translate(83,214)"/>
<path d="M0 0 C-0.33 1.65 -0.66 3.3 -1 5 C-7.52307692 5.36923077 -7.52307692 5.36923077 -9.9375 3.5 C-10.4634375 2.7575 -10.4634375 2.7575 -11 2 C-8.74490247 -2.51019507 -4.15738698 -0.70597137 0 0 Z M-13 4 C-10 5 -10 5 -10 5 Z " fill="#3ACAFB" transform="translate(285,154)"/>
<path d="M0 0 C-0.93103324 2.32758311 -1.65382128 3.74357132 -3.6875 5.25 C-6.83545718 6.27095909 -9.71543368 6.12632947 -13 6 C-13.33 5.01 -13.66 4.02 -14 3 C-4.58997722 -0.44419134 -4.58997722 -0.44419134 0 0 Z " fill="#45C4F9" transform="translate(308,145)"/>
<path d="M0 0 C4.61513112 1.31860889 8.09897612 3.21355437 12 6 C11.01 7.485 11.01 7.485 10 9 C5.69235185 7.43358249 1.93828536 5.31663844 -2 3 C-1.34 2.67 -0.68 2.34 0 2 C0 1.34 0 0.68 0 0 Z " fill="#FDB6BB" transform="translate(106,120)"/>
<path d="M0 0 C-0.36363205 2.57798841 -0.59533633 3.69164073 -2.70703125 5.30078125 C-3.40183594 5.63464844 -4.09664063 5.96851563 -4.8125 6.3125 C-5.49957031 6.65925781 -6.18664062 7.00601563 -6.89453125 7.36328125 C-9.34106905 8.10314333 -10.61786119 7.82973374 -13 7 C-12.43410156 6.73445312 -11.86820312 6.46890625 -11.28515625 6.1953125 C-10.55167969 5.84210938 -9.81820313 5.48890625 -9.0625 5.125 C-8.33160156 4.77695313 -7.60070312 4.42890625 -6.84765625 4.0703125 C-4.83667541 3.1315023 -4.83667541 3.1315023 -4 1 C-5.12148438 1.34224609 -5.12148438 1.34224609 -6.265625 1.69140625 C-7.25046875 1.97886719 -8.2353125 2.26632813 -9.25 2.5625 C-10.22453125 2.85253906 -11.1990625 3.14257812 -12.203125 3.44140625 C-14.96243932 3.99249836 -16.3912824 3.93789609 -19 3 C-12.51656189 0.36903961 -6.97669157 -0.39325819 0 0 Z " fill="#5FAEE5" transform="translate(312,144)"/>
<path d="M0 0 C3.45082357 1.00999714 6.44628719 2.19218592 9.5 4.0625 C12.61390792 5.92807067 15.35557392 6.64444624 19 7 C19 7.66 19 8.32 19 9 C19.66 9 20.32 9 21 9 C22.38232443 10.62626404 23.71937515 12.2925002 25 14 C19.16767782 12.40328229 14.29531388 9.47817405 9.125 6.4375 C8.24585937 5.93025391 7.36671875 5.42300781 6.4609375 4.90039062 C1.68791515 2.11736284 1.68791515 2.11736284 0 1 C0 0.67 0 0.34 0 0 Z " fill="#FC171A" transform="translate(97,112)"/>
<path d="M0 0 C0.33 0 0.66 0 1 0 C1.33 1.98 1.66 3.96 2 6 C2.33 6 2.66 6 3 6 C3.22304441 7.74818591 3.4278645 9.49870323 3.625 11.25 C3.74101562 12.22453125 3.85703125 13.1990625 3.9765625 14.203125 C4.00112537 17.13429393 3.5312717 18.54528964 2 21 C0.4375 19.1875 0.4375 19.1875 -1 17 C0 14 0 14 1 12 C0.34 11.67 -0.32 11.34 -1 11 C-0.67 7.37 -0.34 3.74 0 0 Z " fill="#1E9FE7" transform="translate(16,164)"/>
<path d="M0 0 C0.33 0 0.66 0 1 0 C1.33 11.55 1.66 23.1 2 35 C1.01 35.495 1.01 35.495 0 36 C-1.03685261 31.82116978 -1.0379136 28.02366716 -0.87890625 23.73046875 C-0.85529526 23.04946609 -0.83168427 22.36846344 -0.80735779 21.66682434 C-0.73121614 19.50681088 -0.64698181 17.34720172 -0.5625 15.1875 C-0.50922961 13.71681619 -0.45648961 12.24611307 -0.40429688 10.77539062 C-0.27566911 7.18334976 -0.13978528 3.59162595 0 0 Z " fill="#D2010D" transform="translate(171,192)"/>
<path d="M0 0 C4.29 0.66 8.58 1.32 13 2 C10.53698577 4.46301423 8.72639964 4.76766521 5.375 5.625 C4.37210938 5.88539063 3.36921875 6.14578125 2.3359375 6.4140625 C1.56507813 6.60742188 0.79421875 6.80078125 0 7 C0 4.69 0 2.38 0 0 Z " fill="#41BDF8" transform="translate(245,165)"/>
<path d="M0 0 C0.33 0 0.66 0 1 0 C1.08160748 1.89510699 1.13946459 3.79124504 1.1875 5.6875 C1.22230469 6.74324219 1.25710938 7.79898438 1.29296875 8.88671875 C0.9614422 12.40974086 0.1527715 14.21494596 -2 17 C-2.99 17.33 -3.98 17.66 -5 18 C-7.6875 16.5625 -7.6875 16.5625 -10 15 C-7.53721199 13.768606 -5.7204945 13.92840804 -3 14 C-2.67 12.02 -2.34 10.04 -2 8 C-1.34 8 -0.68 8 0 8 C0 5.36 0 2.72 0 0 Z " fill="#2B59A6" transform="translate(307,215)"/>
<path d="M0 0 C0.66 0.66 1.32 1.32 2 2 C2.99 1.67 3.98 1.34 5 1 C5.36368892 2.60203467 5.71561952 4.20674203 6.0625 5.8125 C6.25972656 6.70582031 6.45695312 7.59914062 6.66015625 8.51953125 C7 11 7 11 6 14 C0 5.4 0 5.4 0 0 Z " fill="#0844A2" transform="translate(34,156)"/>
<path d="M0 0 C-6.52548544 6.86893204 -6.52548544 6.86893204 -10.8125 7.25 C-11.534375 7.1675 -12.25625 7.085 -13 7 C-12.375 4.625 -12.375 4.625 -11 2 C-7.27031861 0.25948202 -4.08993061 -0.24058415 0 0 Z " fill="#0376D6" transform="translate(249,247)"/>
<path d="M0 0 C0.99 0.33 1.98 0.66 3 1 C1.65289578 5.04131267 -0.38428334 5.90288434 -4 8 C-4.99 8 -5.98 8 -7 8 C-6.875 6.25 -6.875 6.25 -6 4 C-3.125 1.6875 -3.125 1.6875 0 0 Z " fill="#0874D4" transform="translate(269,231)"/>
<path d="M0 0 C1.75129657 1.10210905 3.50098464 2.20677432 5.25 3.3125 C6.22453125 3.92738281 7.1990625 4.54226562 8.203125 5.17578125 C10.54733713 6.70475759 12.78784032 8.28820977 15 10 C12.69 10.33 10.38 10.66 8 11 C7.79375 10.2575 7.5875 9.515 7.375 8.75 C5.60854521 5.21709041 3.29070291 4.07457358 0 2 C0 1.34 0 0.68 0 0 Z " fill="#1A9FEA" transform="translate(70,204)"/>
<path d="M0 0 C5.77759884 -0.12036664 11.27959989 0.1679418 17 1 C17 1.33 17 1.66 17 2 C15.02 2 13.04 2 11 2 C11 2.66 11 3.32 11 4 C7.37 3.67 3.74 3.34 0 3 C0 2.01 0 1.02 0 0 Z " fill="#1288E1" transform="translate(138,266)"/>
<path d="M0 0 C0.66 0.33 1.32 0.66 2 1 C-3.94 4.3 -9.88 7.6 -16 11 C-16.66 10.01 -17.32 9.02 -18 8 C-17.20335937 7.67386719 -16.40671875 7.34773437 -15.5859375 7.01171875 C-8.87706928 4.29225606 -8.87706928 4.29225606 -2.375 1.125 C-1.199375 0.568125 -1.199375 0.568125 0 0 Z " fill="#FC8487" transform="translate(214,132)"/>
<path d="M0 0 C3.71888239 0.50712033 6.73454239 1.11608215 10 3 C10 3.66 10 4.32 10 5 C11.65 5.33 13.3 5.66 15 6 C11.21180727 7.43410153 8.93478721 6.51009497 5.25 5.0625 C4.26515625 4.68222656 3.2803125 4.30195313 2.265625 3.91015625 C1.51796875 3.60980469 0.7703125 3.30945313 0 3 C0 2.01 0 1.02 0 0 Z " fill="#E50B17" transform="translate(96,217)"/>
<path d="M0 0 C3.06766064 1.35672137 5.03656753 2.8627493 7.3125 5.3125 C10.61265404 8.72694508 14.06539298 11.35016262 18 14 C16.13671875 14.6171875 16.13671875 14.6171875 14 15 C11.8125 13.125 11.8125 13.125 10.5703125 11.7421875 C8.53347741 9.48241523 6.35882476 7.3804848 4.1875 5.25 C2.77085032 3.85414942 1.36852543 2.44306385 0 1 C0 0.67 0 0.34 0 0 Z " fill="#109AED" transform="translate(52,189)"/>
<path d="M0 0 C3.63 0.33 7.26 0.66 11 1 C11.33 1.99 11.66 2.98 12 4 C8.37 4 4.74 4 1 4 C0.67 2.68 0.34 1.36 0 0 Z " fill="#FDB1B6" transform="translate(161,147)"/>
<path d="M0 0 C1.125 1.75 1.125 1.75 2 4 C1.125 6.25 1.125 6.25 0 8 C0 7.01 0 6.02 0 5 C-2.31 5.33 -4.62 5.66 -7 6 C-7.33 4.68 -7.66 3.36 -8 2 C-6.865625 1.855625 -5.73125 1.71125 -4.5625 1.5625 C-1.19222799 1.38828522 -1.19222799 1.38828522 0 0 Z " fill="#FD7D81" transform="translate(169,165)"/>
<path d="M0 0 C0.33 0.66 0.66 1.32 1 2 C-0.375 4 -0.375 4 -2 6 C-2.66 6 -3.32 6 -4 6 C-4.66 8.31 -5.32 10.62 -6 13 C-6.33 12.01 -6.66 11.02 -7 10 C-7.66 9.67 -8.32 9.34 -9 9 C-7.87895467 7.68412059 -6.75303035 6.37239647 -5.625 5.0625 C-4.99851562 4.33160156 -4.37203125 3.60070312 -3.7265625 2.84765625 C-2 1 -2 1 0 0 Z " fill="#2E6AB5" transform="translate(40,108)"/>
<path d="M0 0 C1.6045556 0.14148989 3.20863767 0.28835686 4.8125 0.4375 C5.70582031 0.51871094 6.59914063 0.59992188 7.51953125 0.68359375 C10 1 10 1 13 2 C13 2.66 13 3.32 13 4 C9.37 4 5.74 4 2 4 C2 3.34 2 2.68 2 2 C1.34 1.34 0.68 0.68 0 0 Z " fill="#46DDF8" transform="translate(115,227)"/>
<path d="M0 0 C0.66 0 1.32 0 2 0 C3.36176922 1.64351457 4.68962066 3.31522656 6 5 C9.13837762 8.29932007 12.39522442 11.21917312 16 14 C15.67 14.66 15.34 15.32 15 16 C13.06172464 14.23000902 11.12435656 12.45904239 9.1875 10.6875 C8.64029297 10.18798828 8.09308594 9.68847656 7.52929688 9.17382812 C6.01473517 7.78777469 4.50712253 6.39413878 3 5 C2.37738281 4.42894531 1.75476562 3.85789063 1.11328125 3.26953125 C0 2 0 2 0 0 Z " fill="#EB060D" transform="translate(52,186)"/>
<path d="M0 0 C0 0.99 0 1.98 0 3 C-3.15830185 6.06806466 -5.61999924 7.49942848 -10 8 C-8.60344703 4.50126729 -7.28739516 3.29108169 -3.875 1.75 C-3.15054688 1.41484375 -2.42609375 1.0796875 -1.6796875 0.734375 C-1.12539062 0.49203125 -0.57109375 0.2496875 0 0 Z " fill="#3DC4F0" transform="translate(243,166)"/>
<path d="M0 0 C1.60746056 0.42523816 3.21089836 0.86570126 4.8125 1.3125 C6.15248047 1.67794922 6.15248047 1.67794922 7.51953125 2.05078125 C10.05247738 3.0200819 11.2716496 3.95009604 13 6 C9.08428299 7.305239 7.96107003 6.32239848 4.3125 4.5625 C3.31863281 4.08941406 2.32476562 3.61632812 1.30078125 3.12890625 C0.54152344 2.75636719 -0.21773438 2.38382813 -1 2 C-0.67 1.34 -0.34 0.68 0 0 Z " fill="#149EEC" transform="translate(78,247)"/>
<path d="M0 0 C-0.33 1.32 -0.66 2.64 -1 4 C-2.45792884 4.05399736 -3.91642712 4.09279177 -5.375 4.125 C-6.18710938 4.14820313 -6.99921875 4.17140625 -7.8359375 4.1953125 C-10 4 -10 4 -12 2 C-10.56342755 1.66269158 -9.12569907 1.33030409 -7.6875 1 C-6.88699219 0.814375 -6.08648437 0.62875 -5.26171875 0.4375 C-3 0 -3 0 0 0 Z " fill="#51D2F0" transform="translate(185,227)"/>
<path d="M0 0 C3.13528595 0.71289565 6.06680209 1.7092533 9.0625 2.875 C9.91972656 3.20242187 10.77695313 3.52984375 11.66015625 3.8671875 C13.96958203 4.98527344 15.32749836 6.08073582 17 8 C16.67 8.66 16.34 9.32 16 10 C10.72 7.03 5.44 4.06 0 1 C0 0.67 0 0.34 0 0 Z " fill="#FD1519" transform="translate(79,102)"/>
<path d="M0 0 C1 2 1 2 1 5 C3.4390706 7.20142332 3.4390706 7.20142332 6 9 C3.6739143 9.38063221 1.33944736 9.71269945 -1 10 C-1.33 9.67 -1.66 9.34 -2 9 C-1.9140625 7.1875 -1.9140625 7.1875 -1.625 5 C-1.53476562 4.278125 -1.44453125 3.55625 -1.3515625 2.8125 C-1 1 -1 1 0 0 Z " fill="#F02C33" transform="translate(44,86)"/>
<path d="M0 0 C4 1.33333333 8 2.66666667 12 4 C12 4.66 12 5.32 12 6 C12.66 6.33 13.32 6.66 14 7 C8.65155992 6.46515599 4.64203897 4.53309233 0 2 C0 1.34 0 0.68 0 0 Z " fill="#FC1B1D" transform="translate(147,139)"/>
<path d="M0 0 C0.66 0 1.32 0 2 0 C2.66 4.62 3.32 9.24 4 14 C3.34 14 2.68 14 2 14 C2 12.68 2 11.36 2 10 C1.34 10 0.68 10 0 10 C0 6.7 0 3.4 0 0 Z " fill="#0081DD" transform="translate(29,141)"/>
<path d="M0 0 C0.66 0.33 1.32 0.66 2 1 C-8.37357631 7.51936219 -8.37357631 7.51936219 -14 9 C-14 8.34 -14 7.68 -14 7 C-11.71296692 5.80274117 -9.42115138 4.61702982 -7.125 3.4375 C-6.14853516 2.92413086 -6.14853516 2.92413086 -5.15234375 2.40039062 C-3.46470143 1.53917109 -1.73420407 0.76313297 0 0 Z " fill="#F8312D" transform="translate(95,52)"/>
<path d="M0 0 C0 0.66 0 1.32 0 2 C-2.1171875 3.5078125 -2.1171875 3.5078125 -4.875 5.125 C-5.77992188 5.66382813 -6.68484375 6.20265625 -7.6171875 6.7578125 C-10 8 -10 8 -12 8 C-10.77974937 4.3392481 -9.873509 4.07660559 -6.5625 2.3125 C-5.75941406 1.87550781 -4.95632812 1.43851562 -4.12890625 0.98828125 C-2 0 -2 0 0 0 Z " fill="#C2070F" transform="translate(193,299)"/>
<path d="M0 0 C2.4375 0.375 2.4375 0.375 5 1 C5.33 1.66 5.66 2.32 6 3 C5.34 3 4.68 3 4 3 C3.71125 3.639375 3.4225 4.27875 3.125 4.9375 C2 7 2 7 0 8 C0 5.36 0 2.72 0 0 Z " fill="#CF0A1D" transform="translate(245,186)"/>
<path d="M0 0 C0.66 0 1.32 0 2 0 C2.125 2.875 2.125 2.875 2 6 C0 8 0 8 -3 10 C-3.3636198 5.75776898 -2.5393228 3.41831915 0 0 Z " fill="#18A7F5" transform="translate(21,150)"/>
<path d="M0 0 C0.99 0 1.98 0 3 0 C3 1.98 3 3.96 3 6 C1.02 6 -0.96 6 -3 6 C-1.125 1.125 -1.125 1.125 0 0 Z " fill="#0F6ABE" transform="translate(30,118)"/>
<path d="M0 0 C0.66 0.66 1.32 1.32 2 2 C5.08347826 2.16681109 5.08347826 2.16681109 8 2 C8.33 3.65 8.66 5.3 9 7 C6.69 6.01 4.38 5.02 2 4 C1.67 4.66 1.34 5.32 1 6 C0.67 4.02 0.34 2.04 0 0 Z " fill="#FD6166" transform="translate(161,168)"/>
<path d="M0 0 C2.64 0 5.28 0 8 0 C4.34879456 3.33370932 -0.21633909 4.97807612 -5 6 C-5.99 5.67 -6.98 5.34 -8 5 C-5.09399739 3.74335022 -3.20395416 3 0 3 C0 2.01 0 1.02 0 0 Z " fill="#49C7FC" transform="translate(275,158)"/>
<path d="M0 0 C-2 2 -2 2 -5 3 C-5.33 3.66 -5.66 4.32 -6 5 C-7.32 4.67 -8.64 4.34 -10 4 C-9 1 -9 1 -6.6875 -0.25 C-3.90126985 -1.0275526 -2.66561622 -0.98726527 0 0 Z " fill="#47DDF9" transform="translate(194,226)"/>
<path d="M0 0 C2.375 -0.1875 2.375 -0.1875 5 0 C5.66 0.99 6.32 1.98 7 3 C6 4 6 4 2.4375 4.0625 C1.303125 4.041875 0.16875 4.02125 -1 4 C-0.67 2.68 -0.34 1.36 0 0 Z " fill="#066BC8" transform="translate(286,219)"/>
<path d="M0 0 C0.94875 0.04125 1.8975 0.0825 2.875 0.125 C2.545 1.775 2.215 3.425 1.875 5.125 C-0.435 4.135 -2.745 3.145 -5.125 2.125 C-3.125 0.125 -3.125 0.125 0 0 Z " fill="#0D7ED4" transform="translate(249.125,182.875)"/>
<path d="M0 0 C1.65 0.33 3.3 0.66 5 1 C4.67 1.66 4.34 2.32 4 3 C3.01 3 2.02 3 1 3 C1 4.32 1 5.64 1 7 C-0.65 7.33 -2.3 7.66 -4 8 C-4 7.34 -4 6.68 -4 6 C-3.01 5.67 -2.02 5.34 -1 5 C-0.67 3.35 -0.34 1.7 0 0 Z " fill="#45C3F6" transform="translate(108,224)"/>
<path d="M0 0 C0.66 0.66 1.32 1.32 2 2 C0.56445975 2.50559908 -0.8735202 3.0042749 -2.3125 3.5 C-3.51326172 3.91765625 -3.51326172 3.91765625 -4.73828125 4.34375 C-7 5 -7 5 -10 5 C-10 4.01 -10 3.02 -10 2 C-8.37828761 1.61102839 -6.75245075 1.23921702 -5.125 0.875 C-4.22007812 0.66617188 -3.31515625 0.45734375 -2.3828125 0.2421875 C-1.20332031 0.12230469 -1.20332031 0.12230469 0 0 Z " fill="#D6040D" transform="translate(197,221)"/>
<path d="M0 0 C-0.99 0.66 -1.98 1.32 -3 2 C-3 2.66 -3 3.32 -3 4 C-4.98 4 -6.96 4 -9 4 C-9.33 3.01 -9.66 2.02 -10 1 C-3.71428571 -1.42857143 -3.71428571 -1.42857143 0 0 Z " fill="#3CCEFC" transform="translate(304,147)"/>
<path d="M0 0 C0.66 0 1.32 0 2 0 C2 0.66 2 1.32 2 2 C2.66 2.66 3.32 3.32 4 4 C-0.43076923 6.09230769 -0.43076923 6.09230769 -3.3125 5.625 C-3.869375 5.41875 -4.42625 5.2125 -5 5 C-4.360625 4.731875 -3.72125 4.46375 -3.0625 4.1875 C-0.66868314 3.11332248 -0.66868314 3.11332248 0 0 Z " fill="#ED0611" transform="translate(270,151)"/>
<path d="M0 0 C0.33 1.32 0.66 2.64 1 4 C-1.475 5.485 -1.475 5.485 -4 7 C-4.66 6.34 -5.32 5.68 -6 5 C-4.02 3.35 -2.04 1.7 0 0 Z " fill="#0970D1" transform="translate(260,238)"/>
<path d="M0 0 C1.98 0 3.96 0 6 0 C4.35 1.98 2.7 3.96 1 6 C0.34 5.67 -0.32 5.34 -1 5 C-0.67 3.35 -0.34 1.7 0 0 Z " fill="#42B9F7" transform="translate(245,199)"/>
<path d="M0 0 C-1.41328129 0.81837442 -2.83078346 1.62946219 -4.25 2.4375 C-5.43335938 3.11619141 -5.43335938 3.11619141 -6.640625 3.80859375 C-8.78833468 4.89311602 -10.65205061 5.53148716 -13 6 C-13 5.34 -13 4.68 -13 4 C-11.40233897 3.13372601 -9.79660056 2.28233535 -8.1875 1.4375 C-7.29417969 0.96183594 -6.40085938 0.48617187 -5.48046875 -0.00390625 C-3 -1 -3 -1 0 0 Z " fill="#FC898C" transform="translate(212,129)"/>
<path d="M0 0 C0.33 0.66 0.66 1.32 1 2 C0.67 2.66 0.34 3.32 0 4 C-2.02045442 3.39816251 -4.02111039 2.72693904 -6 2 C-6.33 1.34 -6.66 0.68 -7 0 C-3.88407501 -1.03864166 -2.9737344 -1.09036928 0 0 Z " fill="#FEBFC5" transform="translate(73,101)"/>
<path d="M0 0 C0.66 0 1.32 0 2 0 C2 0.66 2 1.32 2 2 C3.65 2.33 5.3 2.66 7 3 C7.33 3.99 7.66 4.98 8 6 C4.65750371 5.40312566 2.53563658 4.26396123 0 2 C0 1.34 0 0.68 0 0 Z " fill="#E30F1A" transform="translate(86,212)"/>
<path d="M0 0 C2.29013653 3.4352048 2.17842973 4.985331 2 9 C0.35 7.35 -1.3 5.7 -3 4 C-2.67 3.34 -2.34 2.68 -2 2 C-1.34 2.33 -0.68 2.66 0 3 C0 2.01 0 1.02 0 0 Z " fill="#1B95E5" transform="translate(29,200)"/>
<path d="M0 0 C0.66 0 1.32 0 2 0 C4.15305957 3.85756507 5.39253254 6.55129785 5 11 C2.03947516 7.63576723 1.07710178 4.30840713 0 0 Z " fill="#1F95E3" transform="translate(20,189)"/>
<path d="M0 0 C1.32 0 2.64 0 4 0 C4 1.32 4 2.64 4 4 C2.125 4.625 2.125 4.625 0 5 C-0.66 4.34 -1.32 3.68 -2 3 C-1.34 2.01 -0.68 1.02 0 0 Z " fill="#0786DF" transform="translate(237,176)"/>
<path d="M0 0 C1.98 0.66 3.96 1.32 6 2 C2.81237635 4.12508244 0.73487777 4.5020163 -3 5 C-2.34 4.67 -1.68 4.34 -1 4 C-0.34786708 1.97536745 -0.34786708 1.97536745 0 0 Z " fill="#4EC5FA" transform="translate(294,150)"/>
<path d="M0 0 C2.64 0 5.28 0 8 0 C8 0.66 8 1.32 8 2 C8.66 2.33 9.32 2.66 10 3 C6.98968256 3.93423645 6.13349732 4.04449911 3 3 C3 2.34 3 1.68 3 1 C2.01 0.67 1.02 0.34 0 0 Z " fill="#F94B40" transform="translate(162,19)"/>
<path d="M0 0 C3.3 0 6.6 0 10 0 C8.515 1.485 8.515 1.485 7 3 C4.69 2.34 2.38 1.68 0 1 C0 0.67 0 0.34 0 0 Z " fill="#57CAFD" transform="translate(107,231)"/>
<path d="M0 0 C1.32 0.99 2.64 1.98 4 3 C3.34 3 2.68 3 2 3 C1.67 5.64 1.34 8.28 1 11 C0.67 11 0.34 11 0 11 C0 7.37 0 3.74 0 0 Z " fill="#9D223B" transform="translate(290,224)"/>
<path d="M0 0 C0.66 0.99 1.32 1.98 2 3 C2.33 2.34 2.66 1.68 3 1 C2.25 5.75 2.25 5.75 0 8 C-1.125 5.6875 -1.125 5.6875 -2 3 C-1.34 2.01 -0.68 1.02 0 0 Z " fill="#176FBB" transform="translate(26,124)"/>
<path d="M0 0 C0 2.31 0 4.62 0 7 C-0.99 7 -1.98 7 -3 7 C-3.33 5.35 -3.66 3.7 -4 2 C-1 0 -1 0 0 0 Z " fill="#015CB9" transform="translate(40,112)"/>
<path d="M0 0 C0 3 0 3 -1 5 C-0.34 5.33 0.32 5.66 1 6 C0.01 7.32 -0.98 8.64 -2 10 C-3.01136941 7.26930259 -3.04557718 6.13998707 -2.125 3.3125 C-1 1 -1 1 0 0 Z " fill="#F19CA5" transform="translate(47,82)"/>
<path d="M0 0 C1.32 0 2.64 0 4 0 C4 0.66 4 1.32 4 2 C4.99 2.33 5.98 2.66 7 3 C4.03 3 1.06 3 -2 3 C-1.34 2.01 -0.68 1.02 0 0 Z " fill="#0C96EC" transform="translate(134,265)"/>
<path d="M0 0 C1.65 0 3.3 0 5 0 C5.33 1.32 5.66 2.64 6 4 C3.69 3.34 1.38 2.68 -1 2 C-0.67 1.34 -0.34 0.68 0 0 Z " fill="#1498EC" transform="translate(95,255)"/>
<path d="M0 0 C0.33 0.99 0.66 1.98 1 3 C-0.65 3.33 -2.3 3.66 -4 4 C-4 4.66 -4 5.32 -4 6 C-5.32 5.67 -6.64 5.34 -8 5 C-4.04 2.525 -4.04 2.525 0 0 Z " fill="#A8091D" transform="translate(258,243)"/>
<path d="M0 0 C2.31 1.65 4.62 3.3 7 5 C6.01 5.33 5.02 5.66 4 6 C1.3125 4.5625 1.3125 4.5625 -1 3 C-0.67 2.01 -0.34 1.02 0 0 Z " fill="#FAC4CF" transform="translate(47,84)"/>
<path d="M0 0 C-0.33 0.99 -0.66 1.98 -1 3 C-1.66 3 -2.32 3 -3 3 C-3 3.66 -3 4.32 -3 5 C-4.32 4.34 -5.64 3.68 -7 3 C-2.25 0 -2.25 0 0 0 Z " fill="#C30109" transform="translate(239,255)"/>
<path d="M0 0 C-2.5654594 2.5654594 -4.47686668 2.54046087 -8 3 C-8 2.01 -8 1.02 -8 0 C-4.71303767 -0.79953138 -3.28976808 -1.09658936 0 0 Z " fill="#0B74D0" transform="translate(284,224)"/>
<path d="M0 0 C-2.5654594 2.5654594 -4.47686668 2.54046087 -8 3 C-8 2.01 -8 1.02 -8 0 C-4.71023192 -1.09658936 -3.28696233 -0.79953138 0 0 Z " fill="#4ABFEB" transform="translate(277,156)"/>
<path d="M0 0 C0.33 0.99 0.66 1.98 1 3 C0.34 2.67 -0.32 2.34 -1 2 C-0.67 1.34 -0.34 0.68 0 0 Z " fill="#00FFFF" transform="translate(18,188)"/>
<path d="" fill="#00FFFF" transform="translate(0,0)"/>
<path d="" fill="#3FBFFF" transform="translate(0,0)"/>
<path d="" fill="#00BFFF" transform="translate(0,0)"/>
<path d="" fill="#00FFFF" transform="translate(0,0)"/>
<path d="M0 0 C2 1 2 1 2 1 Z " fill="#FF5F5F" transform="translate(70,63)"/>
<path d="M0 0 C2 1 2 1 2 1 Z " fill="#FF5F5F" transform="translate(85,55)"/>
<path d="" fill="#FF0000" transform="translate(0,0)"/>
<path d="" fill="#7F7F7F" transform="translate(0,0)"/>
<path d="" fill="#FF0000" transform="translate(0,0)"/>
<path d="" fill="#FF0000" transform="translate(0,0)"/>
<path d="" fill="#FF0000" transform="translate(0,0)"/>
<path d="" fill="#FF0000" transform="translate(0,0)"/>
<path d="" fill="#FF0000" transform="translate(0,0)"/>
<path d="" fill="#AA0000" transform="translate(0,0)"/>
<path d="" fill="#FF0000" transform="translate(0,0)"/>
<path d="" fill="#FF0000" transform="translate(0,0)"/>
<path d="" fill="#FF0000" transform="translate(0,0)"/>
<path d="" fill="#7F007F" transform="translate(0,0)"/>
<path d="" fill="#7F7F7F" transform="translate(0,0)"/>
<path d="" fill="#FF0000" transform="translate(0,0)"/>
<path d="" fill="#00FFFF" transform="translate(0,0)"/>
<path d="" fill="#00FFFF" transform="translate(0,0)"/>
<path d="" fill="#0000FF" transform="translate(0,0)"/>
<path d="" fill="#7F7FFF" transform="translate(0,0)"/>
<path d="" fill="#00FFFF" transform="translate(0,0)"/>
<path d="" fill="#00FFFF" transform="translate(0,0)"/>
<path d="" fill="#00FFFF" transform="translate(0,0)"/>
<path d="" fill="#007FFF" transform="translate(0,0)"/>
<path d="" fill="#0000FF" transform="translate(0,0)"/>
<path d="" fill="#00FFFF" transform="translate(0,0)"/>
<path d="" fill="#7F7FFF" transform="translate(0,0)"/>
<path d="" fill="#007FFF" transform="translate(0,0)"/>
<path d="" fill="#7F7FFF" transform="translate(0,0)"/>
<path d="" fill="#557FAA" transform="translate(0,0)"/>
<path d="" fill="#FF00FF" transform="translate(0,0)"/>
<path d="" fill="#7F7F7F" transform="translate(0,0)"/>
<path d="" fill="#7F7F7F" transform="translate(0,0)"/>
<path d="" fill="#0000FF" transform="translate(0,0)"/>
<path d="" fill="#FF7F7F" transform="translate(0,0)"/>
<path d="" fill="#FF7F7F" transform="translate(0,0)"/>
<path d="" fill="#FF0000" transform="translate(0,0)"/>
<path d="" fill="#FF0000" transform="translate(0,0)"/>
<path d="" fill="#FF7F7F" transform="translate(0,0)"/>
<path d="" fill="#FF0000" transform="translate(0,0)"/>
<path d="" fill="#FF0000" transform="translate(0,0)"/>
<path d="" fill="#FF0000" transform="translate(0,0)"/>
<path d="" fill="#FF0000" transform="translate(0,0)"/>
<path d="" fill="#7F7F7F" transform="translate(0,0)"/>
<path d="" fill="#FF5555" transform="translate(0,0)"/>
<path d="" fill="#FF0000" transform="translate(0,0)"/>
<path d="" fill="#FF0000" transform="translate(0,0)"/>
<path d="" fill="#FF0000" transform="translate(0,0)"/>
<path d="" fill="#FF0000" transform="translate(0,0)"/>
</svg>
